<svg width="376" height="331" viewBox="0 0 376 331" fill="none" xmlns="http://www.w3.org/2000/svg">
<path d="M388.621 935.964C314.771 916.175 245.941 881.384 187.164 834.132C128.387 786.881 81.1485 728.364 48.9016 662.859C16.6548 597.355 0.214971 526.519 0.78412 455.53C1.35334 384.541 18.917 315.193 52.1912 252.557C85.4654 189.921 133.609 135.58 193.102 93.5061C252.596 51.4323 321.935 22.6897 396.05 9.37943C470.166 -3.9308 547.185 -1.47219 621.476 16.5756C695.767 34.6233 765.453 67.8039 825.438 113.692L797.891 145.634C743.167 103.771 679.593 73.5008 611.818 57.036C544.043 40.5712 473.779 38.3283 406.164 50.4711C338.549 62.6139 275.292 88.8356 221.016 127.219C166.741 165.603 122.82 215.178 92.4645 272.32C62.1087 329.462 46.0855 392.727 45.5663 457.49C45.047 522.253 60.0449 586.876 89.4634 646.635C118.882 706.394 161.977 759.779 215.599 802.886C269.221 845.993 332.014 877.734 399.387 895.786L388.621 935.964Z" fill="#373636" fill-opacity="0.1"/>
</svg>
